<svg xmlns="http://www.w3.org/2000/svg" width="105" height="35" fill="none" viewBox="0 0 105 35"><rect width="104.125" height="34.125" x="0.438" y="0.438" fill="#fff" rx="5.688"></rect><rect width="104.125" height="34.125" x="0.438" y="0.438" stroke="#000" stroke-width="0.875" rx="5.688"></rect><g fill="#000"><path d="M71.335 16.8v2.005H70.08v1.315h1.256v4.467c0 1.525.69 2.135 2.426 2.135.305 0 .596-.036.85-.08v-1.3c-.218.022-.356.037-.596.037-.777 0-1.118-.364-1.118-1.192V20.12h1.714v-1.315h-1.714v-2.004zM79.033 26.831c2.31 0 3.726-1.547 3.726-4.11 0-2.55-1.424-4.104-3.726-4.104-2.31 0-3.733 1.554-3.733 4.103 0 2.564 1.416 4.111 3.733 4.111m0-1.387c-1.358 0-2.12-.995-2.12-2.724 0-1.714.762-2.716 2.12-2.716 1.35 0 2.12 1.002 2.12 2.716 0 1.722-.77 2.724-2.12 2.724M83.97 26.679h1.562v-4.67c0-1.112.836-1.86 2.02-1.86.275 0 .74.051.871.095v-1.54a3.3 3.3 0 0 0-.697-.066c-1.032 0-1.91.567-2.136 1.344h-.116V18.77h-1.503zM92.3 19.946c1.155 0 1.91.806 1.947 2.048h-3.995c.087-1.235.894-2.048 2.048-2.048m1.94 4.597c-.29.618-.937.96-1.881.96-1.25 0-2.056-.88-2.107-2.267v-.087h5.586v-.545c0-2.484-1.33-3.987-3.53-3.987-2.23 0-3.646 1.605-3.646 4.132 0 2.528 1.387 4.082 3.653 4.082 1.809 0 3.072-.871 3.428-2.288zM61.095 23.758c.12 1.942 1.738 3.184 4.147 3.184 2.575 0 4.186-1.302 4.186-3.38 0-1.634-.918-2.537-3.147-3.056l-1.197-.294c-1.415-.331-1.987-.775-1.987-1.55 0-.98.888-1.62 2.22-1.62 1.265 0 2.139.626 2.297 1.627h1.64c-.097-1.83-1.708-3.117-3.914-3.117-2.371 0-3.952 1.288-3.952 3.222 0 1.596.896 2.545 2.86 3.004l1.4.339c1.439.338 2.071.835 2.071 1.663 0 .964-.993 1.664-2.349 1.664-1.453 0-2.461-.655-2.604-1.686zM44.918 18.638c-1.075 0-2.005.538-2.484 1.438h-.116V18.77h-1.504v10.539h1.562V25.48h.123c.414.836 1.308 1.33 2.434 1.33 1.997 0 3.268-1.577 3.268-4.09s-1.271-4.082-3.283-4.082m-.443 6.77c-1.307 0-2.128-1.032-2.128-2.68 0-1.656.82-2.688 2.135-2.688 1.322 0 2.114 1.01 2.114 2.68 0 1.678-.792 2.688-2.121 2.688M53.665 18.638c-1.075 0-2.004.538-2.484 1.438h-.116V18.77h-1.503v10.539h1.561V25.48h.124c.414.836 1.307 1.33 2.433 1.33 1.997 0 3.268-1.577 3.268-4.09s-1.27-4.082-3.283-4.082m-.443 6.77c-1.307 0-2.128-1.032-2.128-2.68 0-1.656.82-2.688 2.135-2.688 1.322 0 2.114 1.01 2.114 2.68 0 1.678-.792 2.688-2.12 2.688M38.013 26.679h1.791l-3.922-10.863h-1.814l-3.922 10.863h1.731l1.001-2.883h4.14zm-3.125-8.89h.128l1.574 4.591h-3.283z"></path></g><g fill="#000"><path d="M31.194 12.873V7.776h2.054c.96 0 1.537.487 1.537 1.272a1.115 1.115 0 0 1-.895 1.095v.06a1.21 1.21 0 0 1 1.15 1.225c0 .897-.654 1.445-1.746 1.445zm.794-2.939h.941c.702 0 1.067-.258 1.067-.741 0-.47-.344-.746-.932-.746h-1.076zm1.147 2.268c.715 0 1.094-.29 1.094-.83 0-.534-.393-.813-1.14-.813h-1.101v1.643zM35.856 11.785c0-.693.517-1.092 1.434-1.148l1.045-.06v-.332c0-.407-.27-.636-.79-.636-.424 0-.719.156-.803.428h-.737c.078-.661.7-1.085 1.576-1.085.967 0 1.512.48 1.512 1.293v2.627h-.733v-.54h-.06a1.3 1.3 0 0 1-1.158.604 1.17 1.17 0 0 1-1.184-.68 1.2 1.2 0 0 1-.102-.471m2.48-.329v-.322l-.943.06c-.53.036-.772.216-.772.555 0 .346.301.548.715.548a.91.91 0 0 0 1-.84M40.185 7.89a.49.49 0 0 1 .57-.516.494.494 0 0 1 .381.667.49.49 0 0 1-.458.31.47.47 0 0 1-.493-.462m.113 1.136h.759v3.846h-.759zM43.67 11.509l-.844 1.363h-.836l1.28-1.914-1.29-1.932h.889l.828 1.357h.06l.822-1.357h.847l-1.272 1.9 1.286 1.946h-.874l-.84-1.363zM46.112 11.785c0-.693.516-1.092 1.434-1.148l1.045-.06v-.332c0-.407-.27-.636-.79-.636-.425 0-.72.156-.804.428h-.737c.078-.661.701-1.085 1.576-1.085.967 0 1.512.48 1.512 1.293v2.627h-.732v-.54h-.06a1.3 1.3 0 0 1-1.159.604 1.17 1.17 0 0 1-1.184-.68 1.2 1.2 0 0 1-.102-.471m2.479-.329v-.322l-.942.06c-.531.036-.772.216-.772.555 0 .346.3.548.715.548a.91.91 0 0 0 .999-.84M50.54 9.026h.733v.59h.057a1.04 1.04 0 0 1 1.041-.654q.172-.001.34.032v.75a2 2 0 0 0-.425-.047.906.906 0 0 0-.985.904v2.271h-.76zM55.644 9.027h.733v.61h.057a1.15 1.15 0 0 1 1.151-.684 1.26 1.26 0 0 1 1.292.876c.056.179.07.368.043.554v2.49h-.761v-2.3c0-.617-.27-.925-.832-.925a.89.89 0 0 0-.88.6.9.9 0 0 0-.041.375v2.25h-.762zM59.878 11.785c0-.693.517-1.092 1.434-1.148l1.045-.06v-.332c0-.407-.27-.636-.79-.636-.425 0-.719.156-.803.428h-.737c.078-.661.7-1.085 1.575-1.085.967 0 1.513.48 1.513 1.293v2.627h-.733v-.54h-.06a1.3 1.3 0 0 1-1.159.604 1.17 1.17 0 0 1-1.183-.68 1.2 1.2 0 0 1-.102-.471m2.479-.329v-.322l-.942.06c-.531.036-.772.216-.772.555 0 .346.301.548.715.548a.91.91 0 0 0 .999-.84"></path></g><g fill="#000"><path d="M21.673 17.764a4.37 4.37 0 0 1 2.062-3.633 4.49 4.49 0 0 0-3.492-1.888c-1.47-.155-2.894.879-3.643.879-.763 0-1.916-.864-3.157-.838a4.69 4.69 0 0 0-3.914 2.386c-1.692 2.93-.43 7.236 1.19 9.605.812 1.16 1.76 2.455 3 2.409 1.214-.05 1.667-.774 3.132-.774 1.451 0 1.877.774 3.142.744 1.303-.02 2.123-1.164 2.906-2.335a9.6 9.6 0 0 0 1.328-2.706 4.22 4.22 0 0 1-2.554-3.85M19.283 10.685a4.26 4.26 0 0 0 .975-3.054 4.34 4.34 0 0 0-2.807 1.452 4.1 4.1 0 0 0-1 2.941 3.63 3.63 0 0 0 2.832-1.339"></path></g></svg>