<svg xmlns="http://www.w3.org/2000/svg" width="119" height="35" fill="none" viewBox="0 0 119 35"><rect width="117.25" height="34.125" x="0.438" y="0.438" fill="#000" rx="3.938"></rect><rect width="117.25" height="34.125" x="0.438" y="0.438" stroke="#A6A6A6" stroke-width="0.875" rx="3.938"></rect><path fill="#fff" d="M93.568 26.25H95.2V15.31h-1.633zm14.706-6.998-1.872 4.742h-.056l-1.942-4.742h-1.759l2.914 6.628-1.662 3.687h1.703l4.49-10.315zm-9.26 5.755c-.534 0-1.28-.267-1.28-.929 0-.844.929-1.168 1.73-1.168.718 0 1.057.155 1.492.366a1.98 1.98 0 0 1-1.942 1.731m.198-5.995c-1.183 0-2.407.521-2.913 1.675l1.449.605c.31-.605.886-.802 1.492-.802.844 0 1.702.506 1.716 1.407v.113c-.295-.17-.929-.422-1.702-.422-1.563 0-3.153.858-3.153 2.462 0 1.464 1.28 2.407 2.716 2.407 1.097 0 1.704-.493 2.082-1.07h.057v.845h1.577v-4.194c0-1.942-1.451-3.026-3.321-3.026m-10.09 1.571h-2.323v-3.75h2.322c1.22 0 1.914 1.011 1.914 1.875 0 .848-.693 1.875-1.914 1.875m-.043-5.272h-3.912V26.25h1.632v-4.145h2.28c1.81 0 3.588-1.31 3.588-3.397s-1.778-3.397-3.588-3.397m-21.334 9.698c-1.128 0-2.072-.944-2.072-2.24 0-1.312.944-2.27 2.072-2.27 1.114 0 1.988.958 1.988 2.27 0 1.296-.874 2.24-1.988 2.24m1.875-5.145h-.056c-.367-.437-1.072-.832-1.96-.832-1.86 0-3.566 1.636-3.566 3.736 0 2.086 1.705 3.707 3.567 3.707.887 0 1.592-.395 1.959-.845h.056v.535c0 1.424-.761 2.185-1.988 2.185-1 0-1.62-.719-1.874-1.325l-1.424.592c.409.987 1.494 2.2 3.298 2.2 1.918 0 3.54-1.128 3.54-3.878v-6.681H69.62zm2.68 6.386h1.634V15.31h-1.635zm4.044-3.609c-.042-1.438 1.115-2.17 1.946-2.17.648 0 1.198.324 1.382.788zm5.075-1.24c-.31-.832-1.254-2.369-3.186-2.369-1.917 0-3.51 1.509-3.51 3.722 0 2.086 1.58 3.721 3.693 3.721 1.706 0 2.693-1.043 3.102-1.649l-1.269-.846c-.423.62-1 1.03-1.833 1.03-.831 0-1.423-.381-1.803-1.129l4.975-2.058zm-39.644-1.227v1.579h3.777c-.112.888-.408 1.537-.86 1.988-.55.55-1.41 1.156-2.917 1.156-2.326 0-4.145-1.875-4.145-4.201s1.819-4.201 4.145-4.201c1.254 0 2.17.493 2.847 1.128l1.114-1.114c-.945-.902-2.2-1.593-3.961-1.593-3.187 0-5.865 2.594-5.865 5.78 0 3.185 2.678 5.78 5.865 5.78 1.72 0 3.016-.565 4.031-1.622 1.043-1.043 1.368-2.509 1.368-3.693 0-.366-.029-.705-.085-.987zm9.694 4.835c-1.128 0-2.101-.93-2.101-2.255 0-1.34.973-2.255 2.1-2.255s2.1.916 2.1 2.255c0 1.325-.972 2.255-2.1 2.255m0-5.977c-2.059 0-3.736 1.565-3.736 3.722 0 2.143 1.677 3.721 3.736 3.721 2.058 0 3.735-1.578 3.735-3.721 0-2.157-1.677-3.722-3.735-3.722m8.148 5.977c-1.127 0-2.1-.93-2.1-2.255 0-1.34.973-2.255 2.1-2.255s2.1.916 2.1 2.255c0 1.325-.972 2.255-2.1 2.255m0-5.977c-2.057 0-3.735 1.565-3.735 3.722 0 2.143 1.678 3.721 3.735 3.721 2.06 0 3.736-1.578 3.736-3.721 0-2.157-1.677-3.722-3.736-3.722"></path><path fill="#EA4335" d="M18.125 16.995 8.81 26.883l.001.006a2.515 2.515 0 0 0 3.707 1.517l.03-.017 10.486-6.05z"></path><path fill="#FBBC04" d="m27.55 15.312-.009-.006-4.527-2.625-5.1 4.539 5.118 5.117 4.503-2.598a2.517 2.517 0 0 0 .015-4.427"></path><path fill="#4285F4" d="M8.81 8.117a2.5 2.5 0 0 0-.086.647v17.472q0 .337.086.647l9.636-9.635z"></path><path fill="#34A853" d="m18.194 17.5 4.822-4.82-10.474-6.073A2.522 2.522 0 0 0 8.81 8.114v.003z"></path><g fill="#fff"><path d="M36.72 10.88h.766q.747 0 1.184-.43.438-.43.437-1.202 0-.768-.437-1.2t-1.184-.432h-.765zm-.554.53V7.086h1.32q.994 0 1.592.6.596.601.596 1.563 0 .96-.596 1.561-.599.602-1.592.602z"></path><path d="M36.72 10.879v.072h.766c.511 0 .928-.149 1.235-.45s.458-.725.458-1.254c0-.524-.15-.947-.458-1.25-.307-.304-.724-.454-1.235-.453h-.837v3.407h.072zh.071V7.688h.694c.485 0 .857.139 1.134.411.275.273.415.65.415 1.148 0 .503-.14.88-.415 1.151-.277.271-.65.408-1.134.409h-.765zh.071zm-.554.531h.072V7.156h1.248c.65.001 1.157.194 1.54.58.384.388.575.885.576 1.511 0 .626-.192 1.124-.575 1.511-.385.386-.892.58-1.541.58h-1.32zh.072zv.072h1.32c.677.001 1.23-.206 1.643-.622.411-.414.617-.958.617-1.613s-.206-1.198-.617-1.612c-.413-.416-.966-.623-1.643-.623h-1.392v4.47h.072zM40.452 11.41V7.086h.555v4.326z"></path><path d="M40.452 11.41h.072V7.156h.41v4.182h-.482zh.072zv.072h.626v-4.47h-.698v4.47h.072zM43.212 11.507q-.47 0-.919-.307a1.43 1.43 0 0 1-.588-.865l.507-.205q.09.356.37.6a.94.94 0 0 0 .63.246q.36 0 .618-.19a.61.61 0 0 0 .255-.517q0-.363-.255-.56-.256-.195-.81-.365-.574-.18-.869-.468a.98.98 0 0 1-.296-.734q0-.465.369-.81.367-.344.958-.344.549 0 .892.275.344.275.446.601l-.506.211a.75.75 0 0 0-.268-.38.85.85 0 0 0-.552-.175.85.85 0 0 0-.545.178.54.54 0 0 0-.227.444q0 .242.208.408.21.165.612.299.319.103.534.2.214.096.433.256.22.16.332.399.111.239.111.553t-.129.561a1.05 1.05 0 0 1-.344.393 1.7 1.7 0 0 1-.967.296"></path><path d="M43.212 11.508v-.073q-.445.002-.878-.295a1.35 1.35 0 0 1-.56-.822l-.069.017.027.067.507-.205-.027-.067-.07.018c.064.25.195.466.393.637.198.173.427.263.677.263.253 0 .477-.068.66-.204a.68.68 0 0 0 .285-.575c.002-.258-.094-.473-.283-.616-.183-.14-.46-.263-.834-.378q-.561-.178-.839-.45a.9.9 0 0 1-.274-.683c.001-.29.113-.537.346-.757.23-.215.529-.324.909-.325.354 0 .633.089.847.26q.33.265.422.566l.069-.022-.028-.066-.506.21.028.067.07-.018a.82.82 0 0 0-.293-.418.92.92 0 0 0-.597-.191.92.92 0 0 0-.59.194.62.62 0 0 0-.254.5.58.58 0 0 0 .235.464c.15.12.36.221.634.312q.318.102.527.196.207.093.42.25.207.149.31.37.104.223.105.523 0 .298-.122.528a1 1 0 0 1-.32.367 1.63 1.63 0 0 1-.927.283zv.073a1.8 1.8 0 0 0 1.007-.309q.23-.155.368-.419.137-.265.137-.595.001-.327-.118-.584a1.1 1.1 0 0 0-.355-.426 2.5 2.5 0 0 0-.446-.264 5 5 0 0 0-.541-.203q-.395-.131-.59-.286h.001a.43.43 0 0 1-.18-.352.47.47 0 0 1 .198-.387.78.78 0 0 1 .5-.163c.214 0 .38.054.507.159h.001q.198.165.243.343l.022.08.581-.243.061-.025-.02-.063c-.073-.235-.233-.447-.47-.637-.243-.195-.559-.29-.936-.29-.407 0-.748.12-1.008.364-.257.24-.391.532-.39.862-.001.314.106.582.317.786q.313.302.897.485.55.17.788.354c.152.119.226.277.227.502a.54.54 0 0 1-.226.459.94.94 0 0 1-.575.176.86.86 0 0 1-.583-.227 1.1 1.1 0 0 1-.348-.565l-.02-.08-.583.236-.058.024.016.06c.094.386.302.692.616.907q.464.319.96.32zM46.002 9.127h.929q.35 0 .56-.236.21-.235.211-.52 0-.284-.21-.519a.71.71 0 0 0-.561-.236h-.929zm0 2.284h-.554V7.085h1.471q.548 0 .949.365.401.366.4.922.001.555-.4.92a1.36 1.36 0 0 1-.949.367h-.917z"></path><path d="M46.002 9.126v.072h.929c.249.001.46-.086.614-.259.15-.167.23-.36.229-.568 0-.207-.079-.4-.229-.567a.79.79 0 0 0-.614-.26H45.93v1.654h.072zh.072V7.688h.857c.217.001.38.07.507.212V7.9 7.9c.13.147.192.3.192.471a.7.7 0 0 1-.192.472.64.64 0 0 1-.507.211h-.929zh.072zm0 2.284v-.072h-.482V7.156h1.399c.35.001.645.115.9.347.254.232.377.515.378.868-.001.353-.124.636-.378.868a1.29 1.29 0 0 1-.9.347h-.989v1.824zv-.072zh.072V9.73h.845c.381 0 .718-.129.997-.384.282-.256.426-.587.425-.975a1.26 1.26 0 0 0-.425-.975 1.43 1.43 0 0 0-.997-.384h-1.543v4.47h.698v-.072zM49.742 10.49q.48.486 1.172.486.694 0 1.172-.487.48-.486.48-1.241t-.48-1.242a1.58 1.58 0 0 0-1.172-.486q-.693 0-1.172.486-.48.486-.48 1.242 0 .754.48 1.242m2.755.362q-.637.655-1.583.655t-1.581-.655-.636-1.604q0-.949.636-1.604.635-.657 1.581-.656.94 0 1.58.659.638.658.639 1.6 0 .95-.636 1.605"></path><path d="m49.742 10.49-.051.05c.331.338.744.509 1.223.508.48 0 .893-.17 1.224-.508.333-.337.5-.774.5-1.292 0-.519-.167-.955-.5-1.293a1.65 1.65 0 0 0-1.224-.507c-.479-.001-.892.17-1.223.507l-.002.003.002-.003c-.333.338-.5.774-.5 1.293s.167.955.5 1.292zl.052-.051c-.305-.311-.458-.703-.458-1.191s.153-.88.458-1.191a1.5 1.5 0 0 1 1.121-.465c.446 0 .814.154 1.121.465.306.311.459.703.46 1.19-.001.49-.154.88-.46 1.192a1.5 1.5 0 0 1-1.12.465 1.5 1.5 0 0 1-1.122-.465zm2.755.362-.052-.05c-.412.423-.916.633-1.53.633-.615 0-1.12-.21-1.531-.633l-.002-.002.002.002c-.412-.425-.615-.938-.615-1.554s.203-1.129.615-1.554c.412-.424.916-.633 1.53-.634.61 0 1.114.211 1.529.637.413.427.617.939.618 1.55-.001.617-.205 1.13-.616 1.555zl.051.05c.436-.449.657-1.006.656-1.654 0-.645-.22-1.2-.659-1.651a2.19 2.19 0 0 0-1.63-.681c-.648-.001-1.199.227-1.634.678-.437.449-.657 1.006-.656 1.654 0 .648.219 1.205.656 1.654.435.45.986.678 1.633.678s1.198-.227 1.634-.678zM53.91 11.41V7.086h.676l2.097 3.365h.024l-.024-.834V7.085h.555v4.326h-.58l-2.193-3.529h-.024l.024.834v2.695z"></path><path d="M53.91 11.41h.073V7.156h.563l2.097 3.366h.138l-.026-.907V7.156h.41v4.182H56.7L54.505 7.81h-.138l.026.907v2.621h-.482zh.072zv.072h.626V8.715l-.024-.835-.072.002v.072h.024v-.072l-.061.038 2.215 3.562h.691v-4.47h-.699v2.605l.024.835.072-.002v-.072h-.024v.072l.06-.039-2.118-3.399h-.7859999999999999v4.47h.072zM58.744 6.746h-.482l.314-.773h.602zm-.518 4.665V7.085h.554v4.326z"></path><path d="M58.745 6.746v-.072h-.377l.256-.63h.431l-.373.667zv-.072zl.062.035.494-.88h-.774l-.372.917h.631l.02-.037zm-.519 4.664h.072V7.156h.41v4.182h-.482zh.072zv.072h.626v-4.47h-.698v4.47h.072zM60.835 11.41l-1.518-4.325h.614l1.182 3.51h.024l1.23-3.51h.614l-1.567 4.326z"></path><path d="m60.835 11.41.068-.024-1.485-4.23h.462l1.181 3.51h.126l1.23-3.51h.461l-1.514 4.182h-.529zl.068-.024zv.072h.63l1.619-4.47h-.768l-1.247 3.559.068.024v-.072h-.024v.072l.068-.023-1.198-3.56h-.768l1.57 4.47h.05zM66.128 7.616h-1.965v1.372h1.772v.52h-1.772v1.371h1.965v.532h-2.52V7.085h2.52z"></path><path d="M66.128 7.616v-.072H64.09v1.515h1.772v.376H64.09v1.516h1.965v.387H63.68V7.156h2.376v.46zv-.072zh.072v-.604h-2.664v4.47H66.2v-.6749999999999999h-1.965V9.579h1.773v-.6639999999999999h-1.773V7.688H66.2v-.072zM66.996 11.41V7.086h.554v3.794h1.868v.532z"></path><path d="M66.996 11.41h.072V7.156h.41v3.795h1.868v.387h-2.35zh.072zv.072h2.494v-.6749999999999999h-1.868V7.012h-.698v4.47h.072zM71.565 11.41V7.086h.674l2.097 3.365h.024l-.024-.834V7.085h.556v4.326h-.58l-2.194-3.529h-.023l.023.834v2.695z"></path><path d="M71.565 11.41h.071V7.156h.564l2.097 3.366h.137l-.026-.907V7.156h.412v4.182h-.468L72.16 7.81h-.139l.026.907v2.621h-.482zh.072zv.072h.626V8.715l-.023-.835-.072.002v.072h.023v-.072l-.06.038 2.214 3.562h.692v-4.47h-.7v2.605l.024.835.072-.002v-.072h-.024v.072l.062-.039-2.119-3.399h-.7859999999999999v4.47h.072zM76.653 10.49q.48.486 1.172.486.693 0 1.173-.487.48-.486.48-1.241t-.48-1.242a1.58 1.58 0 0 0-1.172-.486q-.694 0-1.173.486t-.479 1.242q0 .754.48 1.242m2.755.362q-.637.655-1.582.655-.948 0-1.582-.655-.636-.656-.636-1.604t.636-1.604q.634-.657 1.582-.656.94 0 1.579.659.639.658.639 1.6 0 .95-.636 1.605"></path><path d="m76.653 10.49-.051.05c.33.338.745.509 1.224.508.479 0 .892-.17 1.223-.508.333-.337.501-.774.5-1.292.001-.519-.167-.955-.5-1.293a1.65 1.65 0 0 0-1.224-.507c-.478-.001-.892.17-1.223.507-.333.338-.5.774-.5 1.293s.167.955.5 1.292zl.051-.051c-.305-.311-.457-.703-.458-1.191 0-.488.153-.88.458-1.191a1.51 1.51 0 0 1 1.122-.465c.445 0 .814.154 1.12.465s.459.703.46 1.19c-.001.49-.154.88-.46 1.192a1.5 1.5 0 0 1-1.12.465c-.446-.001-.814-.154-1.122-.465zm2.755.362-.052-.05c-.412.423-.916.633-1.53.633-.615 0-1.12-.21-1.531-.633-.412-.425-.614-.938-.615-1.554 0-.616.203-1.129.615-1.554.411-.424.916-.633 1.53-.634.611 0 1.114.211 1.528.637s.618.939.619 1.55c-.001.617-.205 1.13-.616 1.555zl.052.05c.436-.449.656-1.006.656-1.654 0-.645-.221-1.2-.66-1.651a2.19 2.19 0 0 0-1.63-.681c-.648-.001-1.199.227-1.634.678-.437.449-.657 1.006-.656 1.654 0 .648.219 1.205.656 1.654.435.45.986.678 1.634.678s1.197-.227 1.634-.678z"></path></g></svg>