<svg xmlns="http://www.w3.org/2000/svg" width="170" height="45" fill="none" viewBox="0 0 123 32"><path fill="#24CA68" fill-rule="evenodd" d="M5.11 0h24.923a5.18 5.18 0 0 1 3.609 1.471 4.97 4.97 0 0 1 1.5 3.537v18.16q.001.119-.004.232V32l-6.636-3.82H5.11a5.18 5.18 0 0 1-3.609-1.472A4.97 4.97 0 0 1 0 23.171V5.011a4.97 4.97 0 0 1 1.501-3.538A5.18 5.18 0 0 1 5.111.002zm12.655 17.262q-.285 0-.566.037l-4.695-7.981a3.12 3.12 0 0 0-.402-3.833 3.26 3.26 0 0 0-1.83-.956c-.702-.114-1.421.002-2.048.33A3.2 3.2 0 0 0 6.8 6.338a3.1 3.1 0 0 0-.213 2.023 3.16 3.16 0 0 0 1.084 1.734 3.27 3.27 0 0 0 1.935.733l4.78 8.117a4.022 4.022 0 0 0-.34 4.25c.348.671.877 1.235 1.53 1.63a4.237 4.237 0 0 0 4.35.02 4.1 4.1 0 0 0 1.546-1.617 4.02 4.02 0 0 0-.301-4.253l4.797-8.142c.71-.03 1.39-.288 1.935-.734a3.16 3.16 0 0 0 1.082-1.734 3.1 3.1 0 0 0-.214-2.022 3.2 3.2 0 0 0-1.423-1.48 3.3 3.3 0 0 0-2.047-.328c-.7.113-1.343.45-1.83.956a3.12 3.12 0 0 0-.4 3.831l-4.703 7.981q-.299-.045-.602-.045z" clip-rule="evenodd"></path><path fill="#24CA68" d="M42.39 12.184a3.8 3.8 0 0 1-.212-.874 1.67 1.67 0 0 1 .437-1.27 1.65 1.65 0 0 1 1.23-.526c.408-.002.805.141 1.119.405s.524.631.594 1.037l2.302 7.797h.046l2.301-7.797c.07-.406.28-.774.594-1.038a1.72 1.72 0 0 1 1.12-.404 1.64 1.64 0 0 1 1.229.526 1.66 1.66 0 0 1 .438 1.27q-.051.451-.212.874l-3.241 9.075c-.329.921-.545 1.228-2.254 1.228s-1.924-.307-2.253-1.228zM65.535 18.841c.045.781.166 1.557.359 2.315a1.43 1.43 0 0 1-.509.985 1.46 1.46 0 0 1-1.062.338 1.9 1.9 0 0 1-1.495-.53 1.86 1.86 0 0 1-.551-1.478 6 6 0 0 1-2.149 1.54 6 6 0 0 1-2.608.468 3.74 3.74 0 0 1-2.704-.945 3.7 3.7 0 0 1-1.222-2.573c0-2.858 2.189-3.66 4.854-3.967l2.116-.237c.827-.089 1.5-.283 1.5-1.278 0-.994-1.025-1.416-2.19-1.416-2.576 0-2.642 1.89-4.022 1.89a1.4 1.4 0 0 1-1.019-.352 1.37 1.37 0 0 1-.453-.971c0-1.369 1.951-3.116 5.519-3.116 3.332 0 5.64 1.063 5.64 3.542zm-3.474-2.48c-.444.308-.961.495-1.5.544l-1.261.188c-1.452.213-2.237.662-2.237 1.7 0 .78.735 1.417 1.93 1.417 1.905 0 3.071-1.228 3.071-2.502zM67.65 6.882c0-.45.173-.88.48-1.197a1.6 1.6 0 0 1 1.158-.496c.434 0 .85.179 1.157.496s.48.748.48 1.197v7.694l3.637-4.173c.154-.192.346-.349.562-.46a1.7 1.7 0 0 1 .694-.19c.396.009.775.17 1.062.454s.46.668.486 1.077c.009.213-.031.424-.117.618a1.34 1.34 0 0 1-.376.495l-2.427 2.623 3.409 4.729c.221.317.34.699.338 1.09.001.428-.16.84-.45 1.148-.288.308-.683.487-1.097.498a1.63 1.63 0 0 1-.841-.19 1.7 1.7 0 0 1-.64-.597l-3.094-4.521-1.144 1.043v2.574c0 .449-.173.88-.48 1.197a1.6 1.6 0 0 1-1.158.495 1.6 1.6 0 0 1-1.157-.495 1.72 1.72 0 0 1-.48-1.197zM80.83 5.19a1.76 1.76 0 0 1 1.723 1.41 1.75 1.75 0 0 1-1.051 1.96 1.76 1.76 0 0 1-2.134-.645 1.75 1.75 0 0 1 .22-2.213 1.76 1.76 0 0 1 1.242-.513m-1.689 6.318a1.68 1.68 0 0 1 1.043-1.555 1.69 1.69 0 0 1 2.205.911c.085.204.129.423.129.644v9.295a1.69 1.69 0 0 1-3.377 0zM84.344 11.243c0-1.039.461-1.725 1.522-1.725s1.523.686 1.523 1.725v.446h.047a4.87 4.87 0 0 1 1.772-1.618 4.73 4.73 0 0 1 2.312-.557c2.03 0 4.245 1.04 4.245 4.538v6.71c0 .457-.177.896-.493 1.22a1.67 1.67 0 0 1-1.191.505c-.447 0-.875-.182-1.191-.505a1.75 1.75 0 0 1-.493-1.22v-6.027c0-1.394-.67-2.387-2.124-2.387-.69.015-1.347.31-1.827.818a2.71 2.71 0 0 0-.734 1.9v5.693c0 .458-.177.896-.493 1.22a1.67 1.67 0 0 1-1.191.505c-.447 0-.875-.182-1.19-.505a1.75 1.75 0 0 1-.494-1.22zM98.4 6.882c0-.449.178-.88.494-1.197a1.68 1.68 0 0 1 2.382 0c.316.318.493.748.493 1.197v4.66h.046a4.51 4.51 0 0 1 3.761-1.786c2.03 0 4.246 1.02 4.246 4.452v6.586c0 .449-.178.88-.494 1.197a1.68 1.68 0 0 1-2.382 0 1.7 1.7 0 0 1-.493-1.197v-5.916c0-1.369-.669-2.343-2.122-2.343a2.6 2.6 0 0 0-1.828.803 2.64 2.64 0 0 0-.733 1.864v5.588c0 .45-.177.88-.493 1.197a1.682 1.682 0 0 1-2.876-1.197zM122.642 18.841c.046.781.166 1.557.359 2.315a1.43 1.43 0 0 1-.509.985 1.46 1.46 0 0 1-1.062.338 1.9 1.9 0 0 1-1.496-.53 1.86 1.86 0 0 1-.55-1.478 6 6 0 0 1-2.149 1.54 6 6 0 0 1-2.608.468 3.74 3.74 0 0 1-2.704-.945 3.663 3.663 0 0 1-1.222-2.573c0-2.858 2.189-3.66 4.855-3.967l2.115-.237c.834-.089 1.5-.283 1.5-1.278 0-.994-1.023-1.416-2.189-1.416-2.575 0-2.641 1.89-4.022 1.89a1.39 1.39 0 0 1-1.345-.792 1.4 1.4 0 0 1-.127-.531c0-1.369 1.951-3.116 5.518-3.116 3.332 0 5.641 1.063 5.641 3.542zm-3.475-2.48c-.443.307-.96.494-1.498.544l-1.261.188c-1.452.213-2.237.662-2.237 1.7 0 .78.735 1.417 1.931 1.417 1.903 0 3.069-1.228 3.069-2.502z"></path></svg>