<svg xmlns="http://www.w3.org/2000/svg" width="91" height="24" fill="none" viewBox="0 0 57 15"><path fill="#fff" fill-rule="evenodd" d="M2.368 0h11.55c.627.002 1.229.25 1.672.69.444.44.694 1.036.696 1.658v8.512q0 .055-.002.109V15l-3.076-1.79H2.368a2.39 2.39 0 0 1-1.672-.69A2.35 2.35 0 0 1 0 10.862V2.348A2.35 2.35 0 0 1 .696.69 2.39 2.39 0 0 1 2.368 0zm5.864 8.092q-.131 0-.262.017L5.795 4.368a1.48 1.48 0 0 0-.187-1.797 1.504 1.504 0 0 0-1.797-.294c-.29.154-.522.398-.66.694a1.475 1.475 0 0 0 .404 1.761c.253.21.568.33.897.344l2.215 3.805a1.907 1.907 0 0 0 .552 2.756 1.947 1.947 0 0 0 2.732-.748 1.9 1.9 0 0 0-.14-1.994l2.223-3.817c.33-.014.644-.135.897-.344s.429-.494.502-.812a1.48 1.48 0 0 0-.1-.948 1.5 1.5 0 0 0-.659-.694 1.51 1.51 0 0 0-1.797.295 1.48 1.48 0 0 0-.185 1.795l-2.18 3.741a2 2 0 0 0-.278-.021z" clip-rule="evenodd"></path><path fill="#fff" d="M19.644 5.711a1.8 1.8 0 0 1-.098-.41.8.8 0 0 1 .202-.595.76.76 0 0 1 .57-.246.8.8 0 0 1 .518.19.82.82 0 0 1 .276.485l1.067 3.656h.02l1.067-3.656a.82.82 0 0 1 .276-.486.8.8 0 0 1 .519-.19.75.75 0 0 1 .57.247.78.78 0 0 1 .202.596q-.024.211-.098.41l-1.502 4.253c-.152.432-.253.576-1.045.576s-.891-.144-1.043-.576zM30.37 8.832q.03.55.166 1.085a.68.68 0 0 1-.728.62.87.87 0 0 1-.897-.567.9.9 0 0 1-.051-.374 2.78 2.78 0 0 1-2.205.94 1.72 1.72 0 0 1-1.657-.988 1.7 1.7 0 0 1-.162-.66c0-1.34 1.014-1.716 2.25-1.86l.98-.11c.383-.042.695-.133.695-.6s-.475-.664-1.015-.664c-1.193 0-1.224.886-1.864.886a.64.64 0 0 1-.682-.62c0-.641.904-1.46 2.558-1.46 1.544 0 2.613.498 2.613 1.66zm-1.61-1.163a1.44 1.44 0 0 1-.696.255l-.584.089c-.673.1-1.037.31-1.037.796 0 .366.341.664.895.664.883 0 1.423-.575 1.423-1.172zM31.35 3.226c0-.21.08-.412.222-.561a.74.74 0 0 1 .537-.233c.201 0 .394.084.536.233s.222.35.222.56v3.607l1.686-1.956a.8.8 0 0 1 .26-.216q.152-.079.322-.088c.184.004.36.08.492.212a.78.78 0 0 1 .225.505.66.66 0 0 1-.054.29c-.04.09-.1.17-.174.232l-1.125 1.23 1.58 2.216a.9.9 0 0 1 .157.511.8.8 0 0 1-.209.539.75.75 0 0 1-.899.144.8.8 0 0 1-.295-.28l-1.434-2.12-.53.49v1.206c0 .21-.08.412-.223.561a.74.74 0 0 1-.537.232.74.74 0 0 1-.536-.232.8.8 0 0 1-.222-.56zM37.457 2.432a.8.8 0 0 1 .517.187.82.82 0 0 1 .201 1.022.808.808 0 0 1-1.395.069.83.83 0 0 1 .101-1.037.8.8 0 0 1 .576-.24m-.782 2.963a.8.8 0 0 1 .483-.73.777.777 0 0 1 1.022.427q.06.146.06.303V9.75c0 .21-.083.41-.23.558a.78.78 0 0 1-1.106 0 .8.8 0 0 1-.23-.558zM39.086 5.27c0-.487.214-.808.705-.808.492 0 .706.321.706.808v.209h.022c.208-.32.49-.58.821-.758s.699-.268 1.071-.261c.941 0 1.968.487 1.968 2.127v3.145c0 .215-.083.42-.229.572a.77.77 0 0 1-.552.237.77.77 0 0 1-.552-.237.82.82 0 0 1-.228-.572V6.907c0-.654-.31-1.119-.984-1.119-.32.007-.625.145-.847.384a1.28 1.28 0 0 0-.34.89v2.669c0 .214-.082.42-.229.572a.77.77 0 0 1-.552.236.77.77 0 0 1-.552-.236.82.82 0 0 1-.228-.572zM45.6 3.226a.8.8 0 0 1 .228-.561.774.774 0 0 1 1.104 0 .8.8 0 0 1 .23.56V5.41h.02c.204-.27.468-.488.771-.634.304-.146.637-.215.972-.203.94 0 1.968.478 1.968 2.087v3.087a.8.8 0 0 1-.229.561.774.774 0 0 1-1.104 0 .8.8 0 0 1-.228-.561V6.974c0-.641-.31-1.098-.984-1.098-.32.007-.624.142-.847.376a1.24 1.24 0 0 0-.34.874v2.62a.8.8 0 0 1-.228.56.774.774 0 0 1-1.104 0 .8.8 0 0 1-.229-.56zM56.834 8.832q.03.55.166 1.085a.68.68 0 0 1-.466.59.7.7 0 0 1-.262.03.87.87 0 0 1-.897-.567.9.9 0 0 1-.051-.374 2.78 2.78 0 0 1-2.204.94 1.72 1.72 0 0 1-1.657-.988 1.7 1.7 0 0 1-.163-.66c0-1.34 1.014-1.716 2.25-1.86l.98-.11c.386-.042.695-.133.695-.6s-.474-.664-1.014-.664c-1.194 0-1.224.886-1.864.886a.64.64 0 0 1-.682-.62c0-.641.904-1.46 2.557-1.46 1.544 0 2.614.498 2.614 1.66zm-1.61-1.163a1.44 1.44 0 0 1-.695.255l-.585.089c-.672.1-1.036.31-1.036.796 0 .366.34.664.895.664.882 0 1.422-.575 1.422-1.172z"></path></svg>